<svg xmlns="http://www.w3.org/2000/svg" viewBox="0 0 64 64"><g fill="none" stroke="#fff8e1" stroke-width="3" stroke-linecap="round"><path d="M10 22 q6 -6 12 0 t12 0 t12 0 t12 0"/><path d="M10 32 q6 -6 12 0 t12 0 t12 0 t12 0"/><path d="M10 42 q6 -6 12 0 t12 0 t12 0 t12 0"/><path d="M10 52 q6 -6 12 0 t12 0 t12 0 t12 0"/></g><g fill="none" stroke="#3e2723" stroke-width="1.4" stroke-linecap="round" opacity="0.7"><path d="M10 22 q6 -6 12 0 t12 0 t12 0 t12 0"/><path d="M10 32 q6 -6 12 0 t12 0 t12 0 t12 0"/><path d="M10 42 q6 -6 12 0 t12 0 t12 0 t12 0"/><path d="M10 52 q6 -6 12 0 t12 0 t12 0 t12 0"/></g></svg>
