<svg xmlns="http://www.w3.org/2000/svg" viewBox="0 0 64 64"><path d="M32 56 Q32 30 32 14" fill="none" stroke="#2e7d32" stroke-width="2.2" stroke-linecap="round"/><path d="M32 22 Q24 18 22 24 Q26 28 32 26" fill="#4caf50" stroke="#3e2723" stroke-width="1.5"/><path d="M32 22 Q40 18 42 24 Q38 28 32 26" fill="#4caf50" stroke="#3e2723" stroke-width="1.5"/><path d="M32 34 Q22 30 20 36 Q26 40 32 38" fill="#4caf50" stroke="#3e2723" stroke-width="1.5"/><path d="M32 34 Q42 30 44 36 Q38 40 32 38" fill="#4caf50" stroke="#3e2723" stroke-width="1.5"/><path d="M32 46 Q24 42 22 48 Q28 52 32 50" fill="#4caf50" stroke="#3e2723" stroke-width="1.5"/><path d="M32 46 Q40 42 42 48 Q36 52 32 50" fill="#4caf50" stroke="#3e2723" stroke-width="1.5"/></svg>
