<svg xmlns="http://www.w3.org/2000/svg" viewBox="0 0 64 64"><path d="M8 56 Q8 44 20 42 L44 42 Q56 44 56 56 Z" fill="#e91e63" stroke="#3e2723" stroke-width="2"/><rect x="44" y="32" width="10" height="14" rx="1.5" fill="#3e2723" stroke="#3e2723" stroke-width="1.5"/><rect x="45" y="33" width="8" height="11" fill="#bbdefb"/><circle cx="49" cy="45.5" r="0.6" fill="#fff"/><ellipse cx="28" cy="28" rx="13" ry="15" fill="#ffd1a4" stroke="#3e2723" stroke-width="2.5"/><path d="M14 18 Q14 8 28 6 Q42 8 42 22 L40 28 Q42 12 28 10 Q16 12 16 24 Z" fill="#3e2723" stroke="#3e2723" stroke-width="1.5"/><path d="M40 24 Q44 30 42 42" fill="none" stroke="#3e2723" stroke-width="3" stroke-linecap="round"/><circle cx="22" cy="28" r="1.5" fill="#3e2723"/><circle cx="34" cy="28" r="1.5" fill="#3e2723"/><circle cx="22.5" cy="27.5" r="0.5" fill="#fff"/><circle cx="34.5" cy="27.5" r="0.5" fill="#fff"/><path d="M22 36 Q28 40 34 36" stroke="#3e2723" stroke-width="1.8" fill="none" stroke-linecap="round"/></svg>
