<svg xmlns="http://www.w3.org/2000/svg" viewBox="0 0 64 64"><path d="M8 30 Q12 18 20 26 Q24 16 28 26 Q32 14 36 26 Q40 16 44 26 Q52 18 56 30" fill="#ff6f00" stroke="#3e2723" stroke-width="1.6" opacity="0.75"/><path d="M14 56 Q14 44 20 42 L44 42 Q50 44 50 56 Z" fill="#c62828" stroke="#3e2723" stroke-width="2"/><circle cx="32" cy="48" r="3" fill="#ffd700" stroke="#3e2723" stroke-width="1.5"/><ellipse cx="32" cy="30" rx="13" ry="14" fill="#ffd1a4" stroke="#3e2723" stroke-width="2.5"/><path d="M18 22 L22 12 L26 18 L32 8 L38 18 L42 12 L46 22 Z" fill="#fbc02d" stroke="#3e2723" stroke-width="2" stroke-linejoin="round"/><circle cx="26" cy="30" r="1.5" fill="#3e2723"/><circle cx="38" cy="30" r="1.5" fill="#3e2723"/><path d="M22 26 L28 26" stroke="#3e2723" stroke-width="2"/><path d="M36 26 L42 26" stroke="#3e2723" stroke-width="2"/><path d="M28 38 L36 38" stroke="#3e2723" stroke-width="2"/></svg>
