<svg xmlns="http://www.w3.org/2000/svg" viewBox="0 0 64 64"><path d="M8 56 Q8 44 18 42 L46 42 Q56 44 56 56 Z" fill="#fff" stroke="#3e2723" stroke-width="2"/><circle cx="32" cy="48" r="1" fill="#3e2723"/><circle cx="32" cy="54" r="1" fill="#3e2723"/><ellipse cx="32" cy="32" rx="13" ry="15" fill="#ffd1a4" stroke="#3e2723" stroke-width="2.5"/><path d="M20 22 Q20 6 32 4 Q44 6 44 22 L44 24 L20 24 Z" fill="#fff" stroke="#3e2723" stroke-width="2.5" stroke-linejoin="round"/><ellipse cx="26" cy="12" rx="5" ry="4" fill="#fff" stroke="#3e2723" stroke-width="1.5"/><ellipse cx="38" cy="12" rx="5" ry="4" fill="#fff" stroke="#3e2723" stroke-width="1.5"/><rect x="20" y="22" width="24" height="3" fill="#3e2723"/><path d="M26 30 q2 -1 4 0" stroke="#3e2723" stroke-width="1.5" fill="none" stroke-linecap="round"/><path d="M34 30 q2 -1 4 0" stroke="#3e2723" stroke-width="1.5" fill="none" stroke-linecap="round"/><path d="M28 40 Q32 42 36 40" stroke="#3e2723" stroke-width="1.8" fill="none" stroke-linecap="round"/></svg>
