<svg xmlns="http://www.w3.org/2000/svg" viewBox="0 0 64 64"><path d="M8 56 Q8 44 18 42 L46 42 Q56 44 56 56 Z" fill="#1976d2" stroke="#3e2723" stroke-width="2"/><path d="M22 42 Q22 34 26 32" fill="none" stroke="#3e2723" stroke-width="3" stroke-linecap="round"/><ellipse cx="32" cy="28" rx="13" ry="15" fill="#ffd1a4" stroke="#3e2723" stroke-width="2.5"/><path d="M18 22 Q22 10 32 10 Q42 10 46 22 Q40 14 32 14 Q24 14 18 22 Z" fill="#3e2723" stroke="#3e2723" stroke-width="1.5"/><circle cx="26" cy="28" r="3" fill="none" stroke="#3e2723" stroke-width="1.5"/><circle cx="38" cy="28" r="3" fill="none" stroke="#3e2723" stroke-width="1.5"/><line x1="29" y1="28" x2="35" y2="28" stroke="#3e2723" stroke-width="1.5"/><circle cx="26" cy="28" r="1" fill="#3e2723"/><circle cx="38" cy="28" r="1" fill="#3e2723"/><path d="M26 36 Q32 40 38 36" stroke="#3e2723" stroke-width="1.6" fill="none" stroke-linecap="round"/></svg>
