<svg xmlns="http://www.w3.org/2000/svg" viewBox="0 0 64 64"><path d="M8 56 Q8 44 18 42 L46 42 Q56 44 56 56 Z" fill="#37474f" stroke="#3e2723" stroke-width="2"/><path d="M28 42 L36 38 L36 46 L28 42 Z M36 42 L28 38 L28 46 L36 42 Z" fill="#c62828" stroke="#3e2723" stroke-width="1.5"/><ellipse cx="32" cy="28" rx="14" ry="16" fill="#ffd1a4" stroke="#3e2723" stroke-width="2.5"/><path d="M18 22 Q24 12 32 12 Q40 12 46 22 Q44 16 32 14 Q22 16 18 22 Z" fill="#9e9e9e" stroke="#3e2723" stroke-width="2"/><circle cx="26" cy="26" r="1.3" fill="#3e2723"/><circle cx="38" cy="26" r="1.3" fill="#3e2723"/><circle cx="38" cy="26" r="4" fill="none" stroke="#3e2723" stroke-width="1.5"/><line x1="42" y1="29" x2="46" y2="40" stroke="#3e2723" stroke-width="1.2"/><path d="M22 22 L28 24" stroke="#3e2723" stroke-width="1.6"/><path d="M36 24 L42 22" stroke="#3e2723" stroke-width="1.6"/><path d="M28 36 L36 36" stroke="#3e2723" stroke-width="2" stroke-linecap="round"/></svg>
