<svg xmlns="http://www.w3.org/2000/svg" viewBox="0 0 64 64"><path d="M8 56 Q8 44 18 42 L46 42 Q56 44 56 56 Z" fill="#90a4ae" stroke="#3e2723" stroke-width="2"/><rect x="48" y="38" width="10" height="14" rx="1" fill="#6d4c41" stroke="#3e2723" stroke-width="1.5"/><rect x="50" y="36" width="6" height="3" rx="1" fill="none" stroke="#3e2723" stroke-width="1"/><ellipse cx="30" cy="28" rx="13" ry="15" fill="#ffd1a4" stroke="#3e2723" stroke-width="2.5"/><path d="M16 22 Q20 12 30 10 Q40 12 44 22 Q42 16 30 14 Q20 16 16 22 Z" fill="#cfd8dc" stroke="#3e2723" stroke-width="2"/><circle cx="24" cy="28" r="3.5" fill="none" stroke="#3e2723" stroke-width="1.5"/><circle cx="34" cy="28" r="3.5" fill="none" stroke="#3e2723" stroke-width="1.5"/><line x1="27.5" y1="28" x2="30.5" y2="28" stroke="#3e2723" stroke-width="1.5"/><circle cx="24" cy="28" r="1" fill="#3e2723"/><circle cx="34" cy="28" r="1" fill="#3e2723"/><path d="M24 36 Q30 38 36 36" stroke="#3e2723" stroke-width="1.6" fill="none" stroke-linecap="round"/></svg>
