<svg xmlns="http://www.w3.org/2000/svg" viewBox="0 0 64 64" aria-label="Banh mi">
  <path d="M6 36 Q14 22 32 22 Q50 22 58 36 Q58 42 50 44 Q32 46 14 44 Q6 42 6 36 Z" fill="#fbc02d" stroke="#3e2723" stroke-width="2.5" stroke-linejoin="round"/>
  <path d="M10 34 Q32 26 54 34" fill="none" stroke="#3e2723" stroke-width="1.8" stroke-linecap="round"/>
  <path d="M14 31 q3 -2 6 0" fill="none" stroke="#5d4037" stroke-width="1.4" stroke-linecap="round"/>
  <path d="M28 30 q3 -2 6 0" fill="none" stroke="#5d4037" stroke-width="1.4" stroke-linecap="round"/>
  <path d="M42 31 q3 -2 6 0" fill="none" stroke="#5d4037" stroke-width="1.4" stroke-linecap="round"/>
  <path d="M12 38 Q32 35 52 38 Q50 41 32 41 Q14 41 12 38 Z" fill="#4caf50" opacity="0.85" stroke="#3e2723" stroke-width="1.5"/>
  <path d="M18 39 q3 -1 5 0 q3 -1 5 0 q3 -1 5 0 q3 -1 5 0 q3 -1 5 0" fill="none" stroke="#fff8e1" stroke-width="1" opacity="0.7"/>
  <ellipse cx="22" cy="39" rx="2" ry="1.5" fill="#c62828"/>
  <ellipse cx="40" cy="39" rx="2" ry="1.5" fill="#c62828"/>
</svg>
