<svg xmlns="http://www.w3.org/2000/svg" viewBox="0 0 64 64" aria-label="Bun bo Hue">
  <g fill="none" stroke="#ef6c00" stroke-width="1.6" stroke-linecap="round" opacity="0.7">
    <path d="M22 12 q-3 -4 0 -8"/>
    <path d="M32 9 q-3 -4 0 -9"/>
    <path d="M42 12 q-3 -4 0 -8"/>
  </g>
  <path d="M8 28 Q32 40 56 28 L52 56 Q32 59 12 56 Z" fill="#7f1d1d" stroke="#3e2723" stroke-width="2.5" stroke-linejoin="round"/>
  <ellipse cx="32" cy="28" rx="24" ry="5.5" fill="#fff8e1" stroke="#3e2723" stroke-width="2.5"/>
  <ellipse cx="32" cy="28" rx="20" ry="3.5" fill="#d32f2f" opacity="0.95"/>
  <ellipse cx="32" cy="28" rx="14" ry="2" fill="#ff8a65" opacity="0.6"/>
  <path d="M16 28 q4 -1.5 7 0 t7 0 t7 0 t7 0 t7 0" stroke="#fff8e1" stroke-width="1.4" fill="none" stroke-linecap="round"/>
  <path d="M22 26 Q26 23 30 26 Q28 30 26 30 Q23 30 22 26 Z" fill="#5d4037" stroke="#3e2723" stroke-width="1.5" stroke-linejoin="round"/>
  <path d="M36 26 Q41 24 44 27 Q42 30 39 30 Q36 30 36 26 Z" fill="#5d4037" stroke="#3e2723" stroke-width="1.5" stroke-linejoin="round"/>
  <circle cx="20" cy="29" r="0.9" fill="#ffeb3b"/>
  <circle cx="46" cy="29" r="0.9" fill="#ffeb3b"/>
  <circle cx="32" cy="32" r="0.9" fill="#ffeb3b"/>
  <ellipse cx="32" cy="56" rx="18" ry="2.5" fill="#5e0e0e" stroke="#3e2723" stroke-width="2"/>
</svg>
