<svg xmlns="http://www.w3.org/2000/svg" viewBox="0 0 64 64" aria-label="Bun cha">
  <g fill="none" stroke="#9e9e9e" stroke-width="1.4" stroke-linecap="round" opacity="0.65">
    <path d="M14 14 q-2 -3 0 -6"/>
    <path d="M22 11 q-2 -3 0 -6"/>
  </g>
  <path d="M5 28 Q22 36 39 28 L36 50 Q22 52 8 50 Z" fill="#fdd835" stroke="#3e2723" stroke-width="2.4" stroke-linejoin="round"/>
  <ellipse cx="22" cy="28" rx="17" ry="4" fill="#fff8e1" stroke="#3e2723" stroke-width="2.4"/>
  <path d="M10 28 q3 -2 5 0 t5 0 t5 0 t5 0 t5 0" stroke="#3e2723" stroke-width="0.9" fill="none" stroke-linecap="round" opacity="0.6"/>
  <path d="M12 31 q3 -2 5 0 t5 0 t5 0 t5 0" stroke="#3e2723" stroke-width="0.9" fill="none" stroke-linecap="round" opacity="0.6"/>
  <ellipse cx="22" cy="50" rx="13" ry="2" fill="#fbc02d" stroke="#3e2723" stroke-width="1.8"/>
  <rect x="42" y="34" width="18" height="9" rx="3" fill="#6d4c41" stroke="#3e2723" stroke-width="2"/>
  <rect x="44" y="36" width="14" height="2" fill="#3e2723" opacity="0.6"/>
  <rect x="42" y="44" width="18" height="9" rx="3" fill="#5d4037" stroke="#3e2723" stroke-width="2"/>
  <rect x="44" y="46" width="14" height="2" fill="#3e2723" opacity="0.6"/>
  <path d="M44 30 q4 -3 8 0" stroke="#ff7043" stroke-width="1.6" fill="none" stroke-linecap="round" opacity="0.7"/>
</svg>
