<svg xmlns="http://www.w3.org/2000/svg" viewBox="0 0 64 64" aria-label="Bun rieu">
  <g fill="none" stroke="#9e9e9e" stroke-width="1.5" stroke-linecap="round" opacity="0.65">
    <path d="M22 14 q-3 -4 0 -8"/>
    <path d="M32 10 q-3 -5 0 -9"/>
    <path d="M42 14 q-3 -4 0 -8"/>
  </g>
  <path d="M9 30 Q32 41 55 30 L51 56 Q32 59 13 56 Z" fill="#ef6c00" stroke="#3e2723" stroke-width="2.5" stroke-linejoin="round"/>
  <ellipse cx="32" cy="30" rx="23" ry="5.5" fill="#fff8e1" stroke="#3e2723" stroke-width="2.5"/>
  <ellipse cx="32" cy="30" rx="19" ry="3.5" fill="#ff7043" opacity="0.85"/>
  <path d="M14 30 q5 -2 9 0 t9 0 t9 0 t9 0 t9 0" stroke="#fff8e1" stroke-width="1.5" fill="none" stroke-linecap="round"/>
  <path d="M16 33 q5 -2 9 0 t9 0 t9 0 t9 0 t9 0" stroke="#fff8e1" stroke-width="1.5" fill="none" stroke-linecap="round"/>
  <path d="M22 28 Q26 24 30 28 Q28 32 26 32 Q23 32 22 28 Z" fill="#d84315" stroke="#3e2723" stroke-width="1.5" stroke-linejoin="round"/>
  <path d="M36 27 Q41 25 44 28 Q42 31 39 31 Q36 31 36 27 Z" fill="#d84315" stroke="#3e2723" stroke-width="1.5" stroke-linejoin="round"/>
  <circle cx="20" cy="28" r="1.6" fill="#c62828" stroke="#3e2723" stroke-width="0.8"/>
  <circle cx="44" cy="28" r="1.6" fill="#c62828" stroke="#3e2723" stroke-width="0.8"/>
  <path d="M14 26 l1 -3" stroke="#2e7d32" stroke-width="1.6" fill="none" stroke-linecap="round"/>
  <path d="M50 26 l1 -3" stroke="#2e7d32" stroke-width="1.6" fill="none" stroke-linecap="round"/>
  <ellipse cx="32" cy="56" rx="18" ry="2.5" fill="#bf360c" stroke="#3e2723" stroke-width="2"/>
</svg>
