<svg xmlns="http://www.w3.org/2000/svg" viewBox="0 0 64 64" aria-label="Com tam">
  <ellipse cx="32" cy="40" rx="28" ry="14" fill="#fff8e1" stroke="#3e2723" stroke-width="2.5"/>
  <ellipse cx="32" cy="40" rx="22" ry="9" fill="#fffde7" stroke="#3e2723" stroke-width="1.8"/>
  <g fill="#3e2723" opacity="0.4">
    <circle cx="22" cy="40" r="0.7"/>
    <circle cx="26" cy="42" r="0.7"/>
    <circle cx="30" cy="40" r="0.7"/>
    <circle cx="34" cy="42" r="0.7"/>
    <circle cx="38" cy="40" r="0.7"/>
    <circle cx="42" cy="42" r="0.7"/>
    <circle cx="24" cy="44" r="0.7"/>
    <circle cx="32" cy="44" r="0.7"/>
    <circle cx="40" cy="44" r="0.7"/>
  </g>
  <path d="M14 32 Q22 25 30 32 L28 38 Q22 39 16 38 Z" fill="#8d6e63" stroke="#3e2723" stroke-width="2" stroke-linejoin="round"/>
  <path d="M16 30 q3 -2 5 0 q3 -2 5 0" stroke="#3e2723" stroke-width="0.9" fill="none" opacity="0.6"/>
  <path d="M36 32 Q44 26 50 33 L48 38 Q42 39 38 38 Z" fill="#fdd835" stroke="#3e2723" stroke-width="2" stroke-linejoin="round"/>
  <ellipse cx="42" cy="35" rx="4" ry="1" fill="#fbc02d" opacity="0.7"/>
  <path d="M22 46 l2 -3" stroke="#4caf50" stroke-width="2" fill="none" stroke-linecap="round"/>
  <path d="M44 46 l2 -3" stroke="#4caf50" stroke-width="2" fill="none" stroke-linecap="round"/>
</svg>
