<svg xmlns="http://www.w3.org/2000/svg" viewBox="0 0 64 64" aria-label="Goi cuon">
  <path d="M14 16 Q18 8 32 8 Q46 8 50 16 L52 50 Q46 56 32 56 Q18 56 12 50 Z" fill="#fffde7" stroke="#3e2723" stroke-width="2.5" stroke-linejoin="round"/>
  <ellipse cx="32" cy="20" rx="14" ry="3" fill="#fff" stroke="#3e2723" stroke-width="1.8"/>
  <path d="M22 28 Q26 25 30 30" fill="none" stroke="#ff7043" stroke-width="3" stroke-linecap="round" opacity="0.85"/>
  <path d="M34 30 Q38 25 42 32" fill="none" stroke="#ff7043" stroke-width="3" stroke-linecap="round" opacity="0.85"/>
  <path d="M22 38 q4 -2 8 0 q4 -2 8 0 q4 -2 8 0" stroke="#4caf50" stroke-width="2" fill="none" stroke-linecap="round" opacity="0.85"/>
  <path d="M22 41 q4 -2 8 0 q4 -2 8 0 q4 -2 8 0" stroke="#66bb6a" stroke-width="1.5" fill="none" stroke-linecap="round" opacity="0.7"/>
  <path d="M22 47 q5 -2 10 0 q5 -2 10 0" stroke="#fff8e1" stroke-width="2" fill="none" stroke-linecap="round"/>
  <path d="M14 16 Q18 8 32 8 Q46 8 50 16" fill="none" stroke="#3e2723" stroke-width="1" opacity="0.4"/>
  <path d="M52 50 Q46 56 32 56 Q18 56 12 50" fill="none" stroke="#3e2723" stroke-width="1" opacity="0.4"/>
</svg>
