<svg xmlns="http://www.w3.org/2000/svg" viewBox="0 0 64 64" aria-label="Hu tieu">
  <g fill="none" stroke="#9e9e9e" stroke-width="1.4" stroke-linecap="round" opacity="0.6">
    <path d="M24 12 q-2 -3 0 -6"/>
    <path d="M40 12 q-2 -3 0 -6"/>
  </g>
  <path d="M8 28 Q32 38 56 28 L52 56 Q32 59 12 56 Z" fill="#5d4037" stroke="#3e2723" stroke-width="2.5" stroke-linejoin="round"/>
  <ellipse cx="32" cy="28" rx="24" ry="5.5" fill="#fff8e1" stroke="#3e2723" stroke-width="2.5"/>
  <ellipse cx="32" cy="28" rx="20" ry="3.5" fill="#ffe0b2" opacity="0.9"/>
  <path d="M14 28 q4 -1.5 7 0 t7 0 t7 0 t7 0 t7 0" stroke="#fff8e1" stroke-width="1.4" fill="none" stroke-linecap="round"/>
  <path d="M16 31 q4 -1.5 7 0 t7 0 t7 0 t7 0 t7 0" stroke="#fff8e1" stroke-width="1.4" fill="none" stroke-linecap="round"/>
  <path d="M28 26 q3 -3 6 0 q-1 3 -3 3 q-2 0 -3 -3 z" fill="#ff7043" stroke="#3e2723" stroke-width="1.4" stroke-linejoin="round"/>
  <ellipse cx="40" cy="27" rx="3" ry="2" fill="#a1887f" stroke="#3e2723" stroke-width="1.3"/>
  <path d="M22 26 l1 -3" stroke="#4caf50" stroke-width="1.8" fill="none" stroke-linecap="round"/>
  <path d="M44 25 l1 -3" stroke="#4caf50" stroke-width="1.8" fill="none" stroke-linecap="round"/>
  <ellipse cx="32" cy="56" rx="18" ry="2.5" fill="#3e2723" opacity="0.7"/>
</svg>
