<svg xmlns="http://www.w3.org/2000/svg" viewBox="0 0 64 64" aria-label="Pho bo">
  <g fill="none" stroke="#9e9e9e" stroke-width="1.6" stroke-linecap="round" opacity="0.7">
    <path d="M20 12 q-3 -5 0 -10"/>
    <path d="M32 8 q-3 -5 0 -10"/>
    <path d="M44 12 q-3 -5 0 -10"/>
  </g>
  <path d="M5 26 Q32 39 59 26 L55 56 Q32 60 9 56 Z" fill="#fff8e1" stroke="#3e2723" stroke-width="2.5" stroke-linejoin="round"/>
  <ellipse cx="32" cy="26" rx="27" ry="6" fill="#fff" stroke="#3e2723" stroke-width="2.5"/>
  <ellipse cx="32" cy="26" rx="22" ry="4" fill="#d7a86e" opacity="0.85"/>
  <path d="M12 26 q5 -2 9 0 t9 0 t9 0 t9 0 t9 0" stroke="#fff8e1" stroke-width="1.6" fill="none" stroke-linecap="round"/>
  <path d="M14 30 q5 -2 9 0 t9 0 t9 0 t9 0 t9 0" stroke="#fff8e1" stroke-width="1.6" fill="none" stroke-linecap="round"/>
  <path d="M22 24 Q26 21 30 24 Q28 28 26 28 Q23 28 22 24 Z" fill="#8b3a3a" stroke="#3e2723" stroke-width="1.5" stroke-linejoin="round"/>
  <path d="M36 24 Q41 22 44 25 Q42 28 39 28 Q36 28 36 24 Z" fill="#8b3a3a" stroke="#3e2723" stroke-width="1.5" stroke-linejoin="round"/>
  <path d="M16 24 l1 -4" stroke="#2e7d32" stroke-width="1.6" fill="none" stroke-linecap="round"/>
  <path d="M48 24 l1 -4" stroke="#2e7d32" stroke-width="1.6" fill="none" stroke-linecap="round"/>
  <circle cx="20" cy="27" r="1.4" fill="#fff8e1" stroke="#3e2723" stroke-width="0.6"/>
  <circle cx="44" cy="27" r="1.4" fill="#fff8e1" stroke="#3e2723" stroke-width="0.6"/>
  <ellipse cx="32" cy="56" rx="22" ry="3" fill="#bcaaa4" stroke="#3e2723" stroke-width="2"/>
</svg>
