<svg xmlns="http://www.w3.org/2000/svg" viewBox="0 0 64 64" aria-label="Ca phe sua da">
  <path d="M18 12 L46 12 L43 56 Q32 58 21 56 Z" fill="#bbdefb" stroke="#3e2723" stroke-width="2.5" stroke-linejoin="round" opacity="0.85"/>
  <path d="M20 18 L44 18 L43 32 L21 32 Z" fill="#3e2723" opacity="0.95"/>
  <path d="M21 32 L43 32 L41 54 Q32 55 23 54 Z" fill="#fff8e1" stroke="none"/>
  <path d="M21 32 L43 32" stroke="#5d4037" stroke-width="0.8" opacity="0.5"/>
  <ellipse cx="32" cy="13" rx="14" ry="3.5" fill="#fff" stroke="#3e2723" stroke-width="2.5"/>
  <ellipse cx="32" cy="13" rx="11" ry="2" fill="#3e2723" opacity="0.9"/>
  <rect x="24" y="38" width="5" height="5" rx="1.2" fill="#fff" stroke="#3e2723" stroke-width="1.3" transform="rotate(-15 26.5 40.5)"/>
  <rect x="34" y="42" width="5" height="5" rx="1.2" fill="#fff" stroke="#3e2723" stroke-width="1.3" transform="rotate(20 36.5 44.5)"/>
  <line x1="36" y1="6" x2="42" y2="56" stroke="#3e2723" stroke-width="2" stroke-linecap="round"/>
  <ellipse cx="32" cy="56" rx="11" ry="2" fill="#d6c089" stroke="#3e2723" stroke-width="2"/>
</svg>
