<svg xmlns="http://www.w3.org/2000/svg" viewBox="0 0 64 64" aria-label="Nuoc mia">
  <path d="M18 12 L46 12 L43 56 Q32 58 21 56 Z" fill="#fff9c4" stroke="#3e2723" stroke-width="2.5" stroke-linejoin="round" opacity="0.9"/>
  <path d="M20 18 L44 18 L41 54 Q32 55 23 54 Z" fill="#fbc02d" stroke="none" opacity="0.85"/>
  <ellipse cx="32" cy="13" rx="14" ry="3.5" fill="#fff" stroke="#3e2723" stroke-width="2.5"/>
  <ellipse cx="32" cy="13" rx="11" ry="2" fill="#f9a825" opacity="0.85"/>
  <g opacity="0.8" fill="#fff" stroke="#3e2723" stroke-width="0.6">
    <circle cx="26" cy="22" r="0.9"/>
    <circle cx="36" cy="26" r="0.9"/>
    <circle cx="30" cy="32" r="0.9"/>
    <circle cx="38" cy="38" r="0.9"/>
    <circle cx="24" cy="40" r="0.9"/>
  </g>
  <line x1="36" y1="6" x2="42" y2="56" stroke="#3e2723" stroke-width="2.2" stroke-linecap="round"/>
  <line x1="36" y1="6" x2="38" y2="6" stroke="#3e2723" stroke-width="2.2" stroke-linecap="round"/>
  <path d="M14 50 q-3 -6 0 -12 q3 6 0 12 z" fill="#8bc34a" stroke="#3e2723" stroke-width="1.5" stroke-linejoin="round"/>
  <line x1="14" y1="44" x2="14" y2="48" stroke="#3e2723" stroke-width="0.8" opacity="0.6"/>
  <ellipse cx="32" cy="56" rx="11" ry="2" fill="#c79a16" stroke="#3e2723" stroke-width="2"/>
</svg>
