<svg xmlns="http://www.w3.org/2000/svg" viewBox="0 0 64 64" aria-label="Tra tac">
  <path d="M18 12 L46 12 L43 56 Q32 58 21 56 Z" fill="#bbdefb" stroke="#3e2723" stroke-width="2.5" stroke-linejoin="round" opacity="0.85"/>
  <path d="M20 18 L44 18 L41 54 Q32 55 23 54 Z" fill="#c9a14a" stroke="none" opacity="0.85"/>
  <ellipse cx="32" cy="13" rx="14" ry="3.5" fill="#fff" stroke="#3e2723" stroke-width="2.5"/>
  <ellipse cx="32" cy="13" rx="11" ry="2" fill="#c9a14a" opacity="0.85"/>
  <rect x="22" y="22" width="5" height="5" rx="1.2" fill="#fff" stroke="#3e2723" stroke-width="1.4" transform="rotate(-15 24.5 24.5)"/>
  <rect x="35" y="28" width="5" height="5" rx="1.2" fill="#fff" stroke="#3e2723" stroke-width="1.4" transform="rotate(20 37.5 30.5)"/>
  <circle cx="30" cy="34" r="6" fill="#fff59d" stroke="#3e2723" stroke-width="1.6"/>
  <g stroke="#3e2723" stroke-width="0.8" fill="none" opacity="0.7">
    <line x1="30" y1="28" x2="30" y2="40"/>
    <line x1="24" y1="34" x2="36" y2="34"/>
    <line x1="26" y1="30" x2="34" y2="38"/>
    <line x1="34" y1="30" x2="26" y2="38"/>
  </g>
  <line x1="36" y1="14" x2="42" y2="56" stroke="#3e2723" stroke-width="2" stroke-linecap="round"/>
  <ellipse cx="32" cy="56" rx="11" ry="2" fill="#9b7a32" stroke="#3e2723" stroke-width="2"/>
</svg>
